# xmcd
#
# Track frame offsets:
#	150
#	27619
#	51554
#	70808
#	88735
#	119798
#	141326
#	170348
#	188550
#	213605
#	285610
#
# Disc length: 4301 seconds
#
# Revision: 0
# Processed by: cddbd v1.5.2PL0 Copyright (c) Steve Scherf et al.
# Submitted via: audiograbber 1.83.01
#
DISCID=b210cb0b
DTITLE=Elwood Splinters Blues Band - Live at the Legendary Midway Tavern
DYEAR=2009
DGENRE=Blues
TTITLE0=Bad Habit
TTITLE1=All Your Loving
TTITLE2=T-Bone Shuffle
TTITLE3=Sinner Street
TTITLE4=Walking To My Baby
TTITLE5=Snatch It Back and Hold It
TTITLE6=If You Love Me Like You Say
TTITLE7=Mess Around
TTITLE8=New Orleans
TTITLE9=How Blue Can You Get
TTITLE10=Sell My Monkey
EXTD=Recorded January 2009 at Martha's Midway Tavern, Mishawaka, Indiana\nPaul 
EXTD='P.T.' Thode - bass, lead vocals\n'Ole Harv' Stauffer - lead vocals\n'Detr
EXTD=oit' Mike Hepner - keyboards, vocals\nDave Lee - woodwinds\nRob Hunter - d
EXTD=rums\nTommy Barrett - guitar
EXTT0=
EXTT1=
EXTT2=
EXTT3=
EXTT4=
EXTT5=
EXTT6=
EXTT7=
EXTT8=
EXTT9=
EXTT10=
PLAYORDER=
